<?xml version="1.0" standalone="no"?><!DOCTYPE svg PUBLIC "-//W3C//DTD SVG 1.1//EN" "http://www.w3.org/Graphics/SVG/1.1/DTD/svg11.dtd"><svg t="1616047180496" class="icon" viewBox="0 0 1024 1024" version="1.1" xmlns="http://www.w3.org/2000/svg" p-id="2643" xmlns:xlink="http://www.w3.org/1999/xlink" width="20" height="20"><defs><style type="text/css"></style></defs><path d="M479.725946 192.32426l63.960731 0 0 703.567014-63.960731 0 0-703.567014Z" p-id="2644"></path><path d="M159.922293 512.12689l703.567014 0 0 63.960731-703.567014 0 0-63.960731Z" p-id="2645"></path><path d="M511.706311 192.069457m-31.980365 0a31.252 31.252 0 1 0 63.960731 0 31.252 31.252 0 1 0-63.960731 0Z" p-id="2646"></path><path d="M863.489306 544.107255m-31.980365 0a31.252 31.252 0 1 0 63.960731 0 31.252 31.252 0 1 0-63.960731 0Z" p-id="2647"></path><path d="M511.706311 895.891274m-31.980365 0a31.252 31.252 0 1 0 63.960731 0 31.252 31.252 0 1 0-63.960731 0Z" p-id="2648"></path><path d="M159.922293 544.107255m-31.980365 0a31.252 31.252 0 1 0 63.960731 0 31.252 31.252 0 1 0-63.960731 0Z" p-id="2649"></path></svg>